# xmcd
#
# Track frame offsets:
# 150
# 20634
# 36653
# 54626
# 74426
# 95612
# 111419
# 132246
# 150622
# 170915
# 198956
# 210343
# 234659
#
# Disc length: 3496 seconds
#
#
# Revision: 0
# Processed by: cddbd v1.5.2PL0 Copyright (c) Steve Scherf et al.
# Submitted via: FreeRIP 2.951 
#
DISCID=c20da60d
DTITLE=Outshined- - My Colors Fade to Grey
DYEAR=1900
DGENRE=Heavy Metal
TTITLE0=Then I Die
TTITLE1=Falling Apart
TTITLE2=The Weight of Sorrow
TTITLE3=You Don´t See
TTITLE4=24 Years
TTITLE5=Lost Train
TTITLE6=And I Break The Cross
TTITLE7=Smile
TTITLE8=Beyond Eyesight
TTITLE9=Your Secret
TTITLE10=Hell
TTITLE11=Enemy
TTITLE12=Shiftless
EXTD=
EXTT0=
EXTT1=
EXTT2=
EXTT3=
EXTT4=
EXTT5=
EXTT6=
EXTT7=
EXTT8=
EXTT9=
EXTT10=
EXTT11=
EXTT12=
PLAYORDER=
